<svg xmlns="http://www.w3.org/2000/svg" x="0px" y="0px" viewBox="0 0 850.4 850.4"
    style="stroke-width:35px;fill:#ffffff;stroke:#ffffff;">
    <path class="st0" d="M825.8,466.7L825.8,466.7l3-0.9l-3.3,0.8c-3.9-14.6-7.7-28.4-7.7-41.1c0-13.5,3.9-27.7,7.9-42.8
		c5.9-21.9,11.9-44.5,6.1-66.3c-6-22.2-22.6-38.8-38.8-54.8c-11-10.9-21.3-21.2-27.8-32.6c-6.6-11.4-10.3-25.5-14.3-40.5
		c-5.8-22.1-11.8-44.9-28-61.1c-15.9-16-38.5-22.1-60.4-27.8c-15-4-29.3-7.8-40.9-14.5c-11-6.4-21-16.5-31.7-27.3
		c-16.3-16.4-32.9-33.2-55.7-39.4c-22.7-6.1-45.7,0.2-67.8,6.2c-14.6,3.9-28.4,7.7-41,7.7c-13.5,0-27.7-3.9-42.8-7.9
		C366.9,20.3,351,16,335.2,16c-6.4,0-12.7,0.7-19,2.4c-22.2,6-38.7,22.6-54.8,38.8c-10.9,11-21.2,21.3-32.6,27.8
		s-25.4,10.3-40.4,14.3c-22.1,5.9-44.8,11.8-61,28.1c-16,16-22,38.5-27.8,60.5c-4,15.1-7.8,29.4-14.5,41
		c-6.4,11-16.5,21.1-27.3,31.8c-16.4,16.2-33.2,32.9-39.3,55.8c-6.1,22.7,0.2,45.8,6.2,68c3.9,14.6,7.7,28.4,7.7,41.1
		c0,13.5-3.9,27.6-7.9,42.8c-5.9,22-11.9,44.6-6.1,66.4c6,22.2,22.6,38.8,38.8,54.9c11,10.9,21.3,21.2,27.8,32.6
		c6.6,11.4,10.3,25.4,14.3,40.4c5.9,22.2,11.8,44.9,28,61.2c16,16,38.5,22.1,60.4,27.8c15.1,4,29.3,7.9,40.9,14.5
		c11,6.4,21,16.5,31.7,27.2c16.3,16.4,33,33.3,55.8,39.4c6.3,1.6,12.8,2.5,19.7,2.5c16.1,0,32.3-4.4,48-8.7
		c14.7-4,28.5-7.8,41.1-7.8c13.5,0,27.6,3.9,42.7,7.9c22,5.9,44.5,11.9,66.3,6.2c22.2-6,38.7-22.7,54.8-38.9
		c10.9-11,21.2-21.3,32.5-27.8c11.4-6.5,25.4-10.3,40.3-14.3c22.2-5.9,44.9-11.9,61.1-28.1c16-15.9,22-38.5,27.8-60.5
		c4-15.1,7.9-29.4,14.5-41c6.4-11,16.4-21,27.1-31.7c16.4-16.3,33.5-33,39.6-55.9C838,511.9,835.8,488.9,825.8,466.7z">
    </path>
</svg>