<svg version="1.1" xmlns="http://www.w3.org/2000/svg" xmlns:xlink="http://www.w3.org/1999/xlink">
    <defs>
        <symbol id='icon-geolocation' xmlns="http://www.w3.org/2000/svg" width="14" height="20"
            viewBox="0 0 14 20">
            <path
                d="M7 9.5C6.33696 9.5 5.70107 9.23661 5.23223 8.76777C4.76339 8.29893 4.5 7.66304 4.5 7C4.5 6.33696 4.76339 5.70107 5.23223 5.23223C5.70107 4.76339 6.33696 4.5 7 4.5C7.66304 4.5 8.29893 4.76339 8.76777 5.23223C9.23661 5.70107 9.5 6.33696 9.5 7C9.5 7.3283 9.43534 7.65339 9.3097 7.95671C9.18406 8.26002 8.99991 8.53562 8.76777 8.76777C8.53562 8.99991 8.26002 9.18406 7.95671 9.3097C7.65339 9.43534 7.3283 9.5 7 9.5ZM7 0C5.14348 0 3.36301 0.737498 2.05025 2.05025C0.737498 3.36301 0 5.14348 0 7C0 12.25 7 20 7 20C7 20 14 12.25 14 7C14 5.14348 13.2625 3.36301 11.9497 2.05025C10.637 0.737498 8.85652 0 7 0Z" />
        </symbol>

        <symbol id='icon-pay' xmlns="http://www.w3.org/2000/svg" width="20" height="18"
            viewBox="0 0 20 18">
            <path
                d="M11.5 13.8889H2V7.93651H12.3C13.3 6.74603 14.8 5.95238 16.5 5.95238C17.8 5.95238 19 6.44841 20 7.24206V1.98413C20 1.4579 19.7893 0.953233 19.4142 0.581137C19.0391 0.209041 18.5304 0 18 0H2C1.46957 0 0.960859 0.209041 0.585786 0.581137C0.210714 0.953233 0 1.4579 0 1.98413V13.8889C0 14.4151 0.210714 14.9198 0.585786 15.2919C0.960859 15.664 1.46957 15.873 2 15.873H12.6C12.2 15.2778 11.8 14.5833 11.5 13.8889ZM2 1.98413H18V3.96825H2V1.98413ZM16.5 7.93651C14.6 7.93651 13 9.52381 13 11.4087C13 13.9881 16.5 17.8571 16.5 17.8571C16.5 17.8571 20 13.9881 20 11.4087C20 9.52381 18.4 7.93651 16.5 7.93651ZM16.5 12.6984C15.8 12.6984 15.3 12.1032 15.3 11.5079C15.3 10.8135 15.9 10.3175 16.5 10.3175C17.1 10.3175 17.7 10.9127 17.7 11.5079C17.8 12.1032 17.2 12.6984 16.5 12.6984Z"
            />
        </symbol>

        <symbol id='icon-return' xmlns="http://www.w3.org/2000/svg" width="20" height="20"
            viewBox="0 0 20 20">
            <path
                d="M14.4444 14H10V17L4.44444 12L10 7V10H14.4444V14ZM10 2C10.2947 2 10.5773 2.10536 10.7857 2.29289C10.994 2.48043 11.1111 2.73478 11.1111 3C11.1111 3.26522 10.994 3.51957 10.7857 3.70711C10.5773 3.89464 10.2947 4 10 4C9.70532 4 9.4227 3.89464 9.21433 3.70711C9.00595 3.51957 8.88889 3.26522 8.88889 3C8.88889 2.73478 9.00595 2.48043 9.21433 2.29289C9.4227 2.10536 9.70532 2 10 2ZM17.7778 2H13.1333C12.6667 0.84 11.4444 0 10 0C8.55556 0 7.33333 0.84 6.86667 2H2.22222C1.63285 2 1.06762 2.21071 0.650874 2.58579C0.234126 2.96086 0 3.46957 0 4V18C0 18.5304 0.234126 19.0391 0.650874 19.4142C1.06762 19.7893 1.63285 20 2.22222 20H17.7778C18.3671 20 18.9324 19.7893 19.3491 19.4142C19.7659 19.0391 20 18.5304 20 18V4C20 3.46957 19.7659 2.96086 19.3491 2.58579C18.9324 2.21071 18.3671 2 17.7778 2Z"
            />
        </symbol>

        <symbol id='mission-item' x="0px" y="0px" xmlns="http://www.w3.org/2000/svg"
            viewBox="0 0 500 500">
            <path
                d="M488.5,274.5L488.5,274.5l1.8-0.5l-2,0.5c-2.4-8.7-4.5-16.9-4.5-24.5c0-8,2.3-16.5,4.7-25.5
			c3.5-13,7.1-26.5,3.7-39.5c-3.6-13.2-13.5-23.1-23.1-32.7c-6.5-6.5-12.6-12.6-16.6-19.4c-3.9-6.8-6.1-15.2-8.5-24.1
			c-3.5-13.1-7.1-26.7-16.7-36.3c-9.5-9.5-22.9-13.1-35.9-16.6c-9-2.4-17.5-4.6-24.4-8.7c-6.5-3.8-12.5-9.8-18.9-16.2
			c-9.7-9.8-19.6-19.8-33.2-23.4c-13.5-3.7-27.3,0.1-40.4,3.7c-8.7,2.4-16.9,4.6-24.5,4.6c-8,0-16.5-2.3-25.5-4.7
			c-9.3-2.5-18.8-5-28.1-5c-3.8,0-7.6,0.4-11.3,1.4C172,11.1,162,21.1,152.4,30.7c-6.5,6.5-12.6,12.6-19.4,16.6
			c-6.8,3.9-15.2,6.1-24.1,8.5c-13.1,3.5-26.7,7.1-36.3,16.7c-9.5,9.5-13.1,23-16.6,36c-2.4,9-4.6,17.5-8.7,24.4
			c-3.8,6.5-9.8,12.5-16.2,18.9c-9.8,9.7-19.7,19.6-23.4,33.2c-3.7,13.5,0.1,27.3,3.7,40.5c2.4,8.7,4.6,16.9,4.6,24.5
			c0,8-2.3,16.5-4.6,25.5c-3.5,13-7.1,26.6-3.7,39.5c3.6,13.2,13.5,23.1,23.1,32.7c6.5,6.5,12.6,12.6,16.6,19.4
			c3.9,6.8,6.1,15.1,8.5,24c3.5,13.1,7.1,26.8,16.7,36.4c9.5,9.5,23,13.1,35.9,16.6c9,2.4,17.5,4.6,24.4,8.7
			c6.5,3.8,12.5,9.8,18.9,16.2c9.7,9.8,19.6,19.8,33.2,23.5c3.8,1,7.6,1.5,11.8,1.5c9.6,0,19.3-2.7,28.5-5.1c8.8-2.4,17-4.6,24.5-4.6
			c8,0,16.5,2.3,25.5,4.6c13,3.6,26.6,7.1,39.5,3.7c13.2-3.6,23.1-13.5,32.7-23.1c6.5-6.5,12.6-12.6,19.4-16.6
			c6.7-3.9,15.1-6.1,24-8.5c13.1-3.5,26.8-7.1,36.4-16.8c9.5-9.5,13.1-23,16.6-36c2.4-9,4.6-17.5,8.7-24.4c3.8-6.5,9.8-12.5,16.2-18.9
			c9.8-9.7,19.9-19.7,23.6-33.3C495.7,301.4,494.4,287.7,488.5,274.5z"
                stroke-width="14px"></path>
        </symbol>

        <symbol id='decor-title' x="0px" y="0px" viewBox="0 0 850.4 410.3">
            <path
                d="M351.6,300.8c45.5,20.8,90.4,42.8,136.4,62.5c23,9.8,43.7,15,68.7,16.8c24.2,1.7,26.9-11.4,47.7-17.2
                    c36.4-10.2,50.6,30.7,12.4,39.4c-47,10.7-90.1,11.7-135.8-5.3c-43.6-16.2-84-40.4-125.5-61.1c-19.3-9.6-41-21.4-63.2-19.4
                    c-25.3,2.3-48.4,14.1-74.3,15.3c-33.4,1.5-101.6-4.4-107.8-47.3c-8-55.4,62.8-44,94.4-37.5c27.8,5.7,54.3,16.5,81.9,22
                    c27.9,5.7,49.2-4.2,74.5-15.3c49.2-21.6,108.5-37,152.6-67.4c-73-44.3-144.1-91.2-222.1-126.4c-68.4-30.9-157.2-64-226-12.7
                    c-11.1,8.3-20.3,19.6-26,32.2c-6.4,14-2.7,29.4-7.8,42.9C27.4,133.4,16,141,4.9,129.5c-10.1-10.4-2-33.4,2.1-44.6
                    C28.2,27.4,86.9,0.5,145,0c78.1-0.7,153.1,31.3,222.4,64.4c35.5,16.9,70.1,35.7,103.2,56.8c30.6,19.5,61.9,54.4,100.8,39.3
                    c68.6-26.4,131.4-75.9,210-57.7c57.6,13.4,99.3,84.7,40.5,125.7c-32.5,22.7-74.6,30.1-113.6,30c-42.6-0.1-77.9-19.1-117-32.7
                    c-41.5-14.4-84.9,10.2-124.1,24.2C448.9,256.6,351.9,281.1,351.6,300.8z M604.7,191.1c24.8,28.8,71.1,34.9,107.4,34.4
                    c31.8-0.4,94.3-7.9,110.4-41.2c23.9-49.5-49.1-56-77.9-51.8C695.1,139.9,649,169.4,604.7,191.1z M131.1,283.8
                    c25.5,27.4,91,30.7,122.6,7.1C212.6,263.8,153.1,259.8,131.1,283.8z"></path>
        </symbol>

    </defs>
</svg>