<svg version="1.1" xmlns="http://www.w3.org/2000/svg" xmlns:xlink="http://www.w3.org/1999/xlink">
    <defs>
        <symbol id='icon-geolocation' xmlns="http://www.w3.org/2000/svg" width="14" height="20"
            viewBox="0 0 14 20">
            <path
                d="M7 9.5C6.33696 9.5 5.70107 9.23661 5.23223 8.76777C4.76339 8.29893 4.5 7.66304 4.5 7C4.5 6.33696 4.76339 5.70107 5.23223 5.23223C5.70107 4.76339 6.33696 4.5 7 4.5C7.66304 4.5 8.29893 4.76339 8.76777 5.23223C9.23661 5.70107 9.5 6.33696 9.5 7C9.5 7.3283 9.43534 7.65339 9.3097 7.95671C9.18406 8.26002 8.99991 8.53562 8.76777 8.76777C8.53562 8.99991 8.26002 9.18406 7.95671 9.3097C7.65339 9.43534 7.3283 9.5 7 9.5ZM7 0C5.14348 0 3.36301 0.737498 2.05025 2.05025C0.737498 3.36301 0 5.14348 0 7C0 12.25 7 20 7 20C7 20 14 12.25 14 7C14 5.14348 13.2625 3.36301 11.9497 2.05025C10.637 0.737498 8.85652 0 7 0Z" />
        </symbol>

        <symbol id='icon-pay' xmlns="http://www.w3.org/2000/svg" width="20" height="18"
            viewBox="0 0 20 18">
            <path
                d="M11.5 13.8889H2V7.93651H12.3C13.3 6.74603 14.8 5.95238 16.5 5.95238C17.8 5.95238 19 6.44841 20 7.24206V1.98413C20 1.4579 19.7893 0.953233 19.4142 0.581137C19.0391 0.209041 18.5304 0 18 0H2C1.46957 0 0.960859 0.209041 0.585786 0.581137C0.210714 0.953233 0 1.4579 0 1.98413V13.8889C0 14.4151 0.210714 14.9198 0.585786 15.2919C0.960859 15.664 1.46957 15.873 2 15.873H12.6C12.2 15.2778 11.8 14.5833 11.5 13.8889ZM2 1.98413H18V3.96825H2V1.98413ZM16.5 7.93651C14.6 7.93651 13 9.52381 13 11.4087C13 13.9881 16.5 17.8571 16.5 17.8571C16.5 17.8571 20 13.9881 20 11.4087C20 9.52381 18.4 7.93651 16.5 7.93651ZM16.5 12.6984C15.8 12.6984 15.3 12.1032 15.3 11.5079C15.3 10.8135 15.9 10.3175 16.5 10.3175C17.1 10.3175 17.7 10.9127 17.7 11.5079C17.8 12.1032 17.2 12.6984 16.5 12.6984Z" />
        </symbol>

        <symbol id='icon-return' xmlns="http://www.w3.org/2000/svg" width="20" height="20"
            viewBox="0 0 20 20">
            <path
                d="M14.4444 14H10V17L4.44444 12L10 7V10H14.4444V14ZM10 2C10.2947 2 10.5773 2.10536 10.7857 2.29289C10.994 2.48043 11.1111 2.73478 11.1111 3C11.1111 3.26522 10.994 3.51957 10.7857 3.70711C10.5773 3.89464 10.2947 4 10 4C9.70532 4 9.4227 3.89464 9.21433 3.70711C9.00595 3.51957 8.88889 3.26522 8.88889 3C8.88889 2.73478 9.00595 2.48043 9.21433 2.29289C9.4227 2.10536 9.70532 2 10 2ZM17.7778 2H13.1333C12.6667 0.84 11.4444 0 10 0C8.55556 0 7.33333 0.84 6.86667 2H2.22222C1.63285 2 1.06762 2.21071 0.650874 2.58579C0.234126 2.96086 0 3.46957 0 4V18C0 18.5304 0.234126 19.0391 0.650874 19.4142C1.06762 19.7893 1.63285 20 2.22222 20H17.7778C18.3671 20 18.9324 19.7893 19.3491 19.4142C19.7659 19.0391 20 18.5304 20 18V4C20 3.46957 19.7659 2.96086 19.3491 2.58579C18.9324 2.21071 18.3671 2 17.7778 2Z" />
        </symbol>
        <symbol id="bag" xmlns="http://www.w3.org/2000/svg" viewBox="0 0 24 24">
            <path
                d="M2 3L2.26491 3.0883C3.58495 3.52832 4.24497 3.74832 4.62248 4.2721C5 4.79587 5 5.49159 5 6.88304V9.5C5 12.3284 5 13.7426 5.87868 14.6213C6.75736 15.5 8.17157 15.5 11 15.5H19"
                stroke-width="1.5" stroke-linecap="round" />
            <path
                d="M7.5 18C8.32843 18 9 18.6716 9 19.5C9 20.3284 8.32843 21 7.5 21C6.67157 21 6 20.3284 6 19.5C6 18.6716 6.67157 18 7.5 18Z"
                stroke-width="1.5" />
            <path
                d="M16.5 18.0001C17.3284 18.0001 18 18.6716 18 19.5001C18 20.3285 17.3284 21.0001 16.5 21.0001C15.6716 21.0001 15 20.3285 15 19.5001C15 18.6716 15.6716 18.0001 16.5 18.0001Z"
                stroke-width="1.5" />
            <path d="M11 9H8" stroke-width="1.5" stroke-linecap="round" />
            <path
                d="M5 6H16.4504C18.5054 6 19.5328 6 19.9775 6.67426C20.4221 7.34853 20.0173 8.29294 19.2078 10.1818L18.7792 11.1818C18.4013 12.0636 18.2123 12.5045 17.8366 12.7523C17.4609 13 16.9812 13 16.0218 13H5"
                stroke-width="1.5" />
        </symbol>
        <symbol enable-background="new 0 0 32 32" id="search" version="1.1" viewBox="0 0 32 32"
            xml:space="preserve"
            xmlns="http://www.w3.org/2000/svg" xmlns:xlink="http://www.w3.org/1999/xlink">
            <path
                d="M27.414,24.586l-5.077-5.077C23.386,17.928,24,16.035,24,14c0-5.514-4.486-10-10-10S4,8.486,4,14  s4.486,10,10,10c2.035,0,3.928-0.614,5.509-1.663l5.077,5.077c0.78,0.781,2.048,0.781,2.828,0  C28.195,26.633,28.195,25.367,27.414,24.586z M7,14c0-3.86,3.14-7,7-7s7,3.14,7,7s-3.14,7-7,7S7,17.86,7,14z"
                id="XMLID_223_" />
        </symbol>
        <symbol xmlns="http://www.w3.org/2000/svg" id="krug" x="0px" y="0px"
            viewBox="0 0 850.4 850.4"
            style="stroke-width:35px;">
            <path class="st0"
                d="M825.8,466.7L825.8,466.7l3-0.9l-3.3,0.8c-3.9-14.6-7.7-28.4-7.7-41.1c0-13.5,3.9-27.7,7.9-42.8
		c5.9-21.9,11.9-44.5,6.1-66.3c-6-22.2-22.6-38.8-38.8-54.8c-11-10.9-21.3-21.2-27.8-32.6c-6.6-11.4-10.3-25.5-14.3-40.5
		c-5.8-22.1-11.8-44.9-28-61.1c-15.9-16-38.5-22.1-60.4-27.8c-15-4-29.3-7.8-40.9-14.5c-11-6.4-21-16.5-31.7-27.3
		c-16.3-16.4-32.9-33.2-55.7-39.4c-22.7-6.1-45.7,0.2-67.8,6.2c-14.6,3.9-28.4,7.7-41,7.7c-13.5,0-27.7-3.9-42.8-7.9
		C366.9,20.3,351,16,335.2,16c-6.4,0-12.7,0.7-19,2.4c-22.2,6-38.7,22.6-54.8,38.8c-10.9,11-21.2,21.3-32.6,27.8
		s-25.4,10.3-40.4,14.3c-22.1,5.9-44.8,11.8-61,28.1c-16,16-22,38.5-27.8,60.5c-4,15.1-7.8,29.4-14.5,41
		c-6.4,11-16.5,21.1-27.3,31.8c-16.4,16.2-33.2,32.9-39.3,55.8c-6.1,22.7,0.2,45.8,6.2,68c3.9,14.6,7.7,28.4,7.7,41.1
		c0,13.5-3.9,27.6-7.9,42.8c-5.9,22-11.9,44.6-6.1,66.4c6,22.2,22.6,38.8,38.8,54.9c11,10.9,21.3,21.2,27.8,32.6
		c6.6,11.4,10.3,25.4,14.3,40.4c5.9,22.2,11.8,44.9,28,61.2c16,16,38.5,22.1,60.4,27.8c15.1,4,29.3,7.9,40.9,14.5
		c11,6.4,21,16.5,31.7,27.2c16.3,16.4,33,33.3,55.8,39.4c6.3,1.6,12.8,2.5,19.7,2.5c16.1,0,32.3-4.4,48-8.7
		c14.7-4,28.5-7.8,41.1-7.8c13.5,0,27.6,3.9,42.7,7.9c22,5.9,44.5,11.9,66.3,6.2c22.2-6,38.7-22.7,54.8-38.9
		c10.9-11,21.2-21.3,32.5-27.8c11.4-6.5,25.4-10.3,40.3-14.3c22.2-5.9,44.9-11.9,61.1-28.1c16-15.9,22-38.5,27.8-60.5
		c4-15.1,7.9-29.4,14.5-41c6.4-11,16.4-21,27.1-31.7c16.4-16.3,33.5-33,39.6-55.9C838,511.9,835.8,488.9,825.8,466.7z">
            </path>
        </symbol>
        <symbol xmlns="http://www.w3.org/2000/svg" id="titleLogo" x="0px" y="0px"
            viewBox="0 0 850.4 410.3">
            <path
                d="M351.6,300.8c45.5,20.8,90.4,42.8,136.4,62.5c23,9.8,43.7,15,68.7,16.8c24.2,1.7,26.9-11.4,47.7-17.2
			c36.4-10.2,50.6,30.7,12.4,39.4c-47,10.7-90.1,11.7-135.8-5.3c-43.6-16.2-84-40.4-125.5-61.1c-19.3-9.6-41-21.4-63.2-19.4
			c-25.3,2.3-48.4,14.1-74.3,15.3c-33.4,1.5-101.6-4.4-107.8-47.3c-8-55.4,62.8-44,94.4-37.5c27.8,5.7,54.3,16.5,81.9,22
			c27.9,5.7,49.2-4.2,74.5-15.3c49.2-21.6,108.5-37,152.6-67.4c-73-44.3-144.1-91.2-222.1-126.4c-68.4-30.9-157.2-64-226-12.7
			c-11.1,8.3-20.3,19.6-26,32.2c-6.4,14-2.7,29.4-7.8,42.9C27.4,133.4,16,141,4.9,129.5c-10.1-10.4-2-33.4,2.1-44.6
			C28.2,27.4,86.9,0.5,145,0c78.1-0.7,153.1,31.3,222.4,64.4c35.5,16.9,70.1,35.7,103.2,56.8c30.6,19.5,61.9,54.4,100.8,39.3
			c68.6-26.4,131.4-75.9,210-57.7c57.6,13.4,99.3,84.7,40.5,125.7c-32.5,22.7-74.6,30.1-113.6,30c-42.6-0.1-77.9-19.1-117-32.7
			c-41.5-14.4-84.9,10.2-124.1,24.2C448.9,256.6,351.9,281.1,351.6,300.8z M604.7,191.1c24.8,28.8,71.1,34.9,107.4,34.4
			c31.8-0.4,94.3-7.9,110.4-41.2c23.9-49.5-49.1-56-77.9-51.8C695.1,139.9,649,169.4,604.7,191.1z M131.1,283.8
			c25.5,27.4,91,30.7,122.6,7.1C212.6,263.8,153.1,259.8,131.1,283.8z"></path>
        </symbol>
        <symbol enable-background="new 0 0 512 512" id="instagram" version="1.1"
            viewBox="0 0 512 512">
            <g>
                <path
                    d="M505,257c0,34.8-0.7,69.7,0.2,104.5c1.5,61.6-37.2,109.2-86.5,130.4c-19.8,8.5-40.6,13-62.1,13c-67.3,0.1-134.7,1-202-0.3   c-50.7-1-92.4-22.2-122.3-64c-15.7-22-23.2-47-23.2-74.1c0-71.7,0-143.3,0-215c0-58.5,28.5-99.4,79.1-126C110.2,14,134.1,9.1,159,9   c65.3,0,130.7-0.4,196,0.2c50.7,0.4,93,19.8,124.2,60.6c17.4,22.8,25.8,49,25.8,77.8C505,184,505,220.5,505,257z M46,257   c0,36.7,0,73.3,0,110c0,16.4,3.8,31.8,12.3,45.7c22.3,36.5,56,54.3,97.8,55c67.1,1,134.3,0.4,201.5,0.2c16.5,0,32.5-3.4,47.4-10.5   c40.6-19.4,63.3-50.3,63.1-96.7c-0.4-71-0.1-142-0.1-213c0-20.1-5.7-38.5-17.6-54.7c-23-31.1-54.8-46.4-92.8-46.8   c-67-0.8-134-0.3-201-0.2c-14.3,0-28.1,2.9-41.5,7.9c-36.8,13.7-71,48.4-69.4,99.5C46.9,188,46,222.5,46,257z" />
                <path
                    d="M257.6,363c-64.5,0-116.5-51.4-116.6-115.4c-0.1-63,52.3-114.6,116.4-114.6c64.3-0.1,116.5,51.4,116.6,114.9   C374,311.3,321.9,362.9,257.6,363z M257.6,326c43.9,0,79.5-35.1,79.4-78.3c-0.1-42.8-35.7-77.8-79.4-77.8   c-43.9,0-79.7,34.9-79.7,78C178,291.1,213.7,326.1,257.6,326z" />
                <path
                    d="M387.5,98c13.5,0,24.5,11.5,24.5,25.6c-0.1,14.1-11.2,25.5-24.7,25.4c-13.3-0.1-24.2-11.5-24.2-25.3   C363,109.6,374,98,387.5,98z" />
            </g>
        </symbol>

        <symbol id='mission-item' x="0px" y="0px" xmlns="http://www.w3.org/2000/svg"
            viewBox="0 0 500 500">
            <path
                d="M488.5,274.5L488.5,274.5l1.8-0.5l-2,0.5c-2.4-8.7-4.5-16.9-4.5-24.5c0-8,2.3-16.5,4.7-25.5
			c3.5-13,7.1-26.5,3.7-39.5c-3.6-13.2-13.5-23.1-23.1-32.7c-6.5-6.5-12.6-12.6-16.6-19.4c-3.9-6.8-6.1-15.2-8.5-24.1
			c-3.5-13.1-7.1-26.7-16.7-36.3c-9.5-9.5-22.9-13.1-35.9-16.6c-9-2.4-17.5-4.6-24.4-8.7c-6.5-3.8-12.5-9.8-18.9-16.2
			c-9.7-9.8-19.6-19.8-33.2-23.4c-13.5-3.7-27.3,0.1-40.4,3.7c-8.7,2.4-16.9,4.6-24.5,4.6c-8,0-16.5-2.3-25.5-4.7
			c-9.3-2.5-18.8-5-28.1-5c-3.8,0-7.6,0.4-11.3,1.4C172,11.1,162,21.1,152.4,30.7c-6.5,6.5-12.6,12.6-19.4,16.6
			c-6.8,3.9-15.2,6.1-24.1,8.5c-13.1,3.5-26.7,7.1-36.3,16.7c-9.5,9.5-13.1,23-16.6,36c-2.4,9-4.6,17.5-8.7,24.4
			c-3.8,6.5-9.8,12.5-16.2,18.9c-9.8,9.7-19.7,19.6-23.4,33.2c-3.7,13.5,0.1,27.3,3.7,40.5c2.4,8.7,4.6,16.9,4.6,24.5
			c0,8-2.3,16.5-4.6,25.5c-3.5,13-7.1,26.6-3.7,39.5c3.6,13.2,13.5,23.1,23.1,32.7c6.5,6.5,12.6,12.6,16.6,19.4
			c3.9,6.8,6.1,15.1,8.5,24c3.5,13.1,7.1,26.8,16.7,36.4c9.5,9.5,23,13.1,35.9,16.6c9,2.4,17.5,4.6,24.4,8.7
			c6.5,3.8,12.5,9.8,18.9,16.2c9.7,9.8,19.6,19.8,33.2,23.5c3.8,1,7.6,1.5,11.8,1.5c9.6,0,19.3-2.7,28.5-5.1c8.8-2.4,17-4.6,24.5-4.6
			c8,0,16.5,2.3,25.5,4.6c13,3.6,26.6,7.1,39.5,3.7c13.2-3.6,23.1-13.5,32.7-23.1c6.5-6.5,12.6-12.6,19.4-16.6
			c6.7-3.9,15.1-6.1,24-8.5c13.1-3.5,26.8-7.1,36.4-16.8c9.5-9.5,13.1-23,16.6-36c2.4-9,4.6-17.5,8.7-24.4c3.8-6.5,9.8-12.5,16.2-18.9
			c9.8-9.7,19.9-19.7,23.6-33.3C495.7,301.4,494.4,287.7,488.5,274.5z"
                stroke-width="14px"></path>
        </symbol>

        <symbol id='vk' viewBox="0 0 32 32" version="1.1">
            <path
                d="M25.217 22.402h-2.179c-0.825 0-1.080-0.656-2.562-2.158-1.291-1.25-1.862-1.418-2.179-1.418-0.445 0-0.572 0.127-0.572 0.741v1.968c0 0.53-0.169 0.847-1.566 0.847-2.818-0.189-5.24-1.726-6.646-3.966l-0.021-0.035c-1.632-2.027-2.835-4.47-3.43-7.142l-0.022-0.117c0-0.317 0.127-0.614 0.741-0.614h2.179c0.55 0 0.762 0.254 0.975 0.846 1.078 3.112 2.878 5.842 3.619 5.842 0.275 0 0.402-0.127 0.402-0.825v-3.219c-0.085-1.482-0.868-1.608-0.868-2.137 0.009-0.283 0.241-0.509 0.525-0.509 0.009 0 0.017 0 0.026 0.001l-0.001-0h3.429c0.466 0 0.635 0.254 0.635 0.804v4.34c0 0.465 0.212 0.635 0.339 0.635 0.275 0 0.509-0.17 1.016-0.677 1.054-1.287 1.955-2.759 2.642-4.346l0.046-0.12c0.145-0.363 0.493-0.615 0.9-0.615 0.019 0 0.037 0.001 0.056 0.002l-0.003-0h2.179c0.656 0 0.805 0.337 0.656 0.804-0.874 1.925-1.856 3.579-2.994 5.111l0.052-0.074c-0.232 0.381-0.317 0.55 0 0.975 0.232 0.317 0.995 0.973 1.503 1.566 0.735 0.727 1.351 1.573 1.816 2.507l0.025 0.055c0.212 0.612-0.106 0.93-0.72 0.93zM20.604 1.004h-9.207c-8.403 0-10.392 1.989-10.392 10.392v9.207c0 8.403 1.989 10.392 10.392 10.392h9.207c8.403 0 10.392-1.989 10.392-10.392v-9.207c0-8.403-2.011-10.392-10.392-10.392z"></path>
        </symbol>

        <symbol id='decor-title' x="0px" y="0px" viewBox="0 0 850.4 410.3">
            <path
                d="M351.6,300.8c45.5,20.8,90.4,42.8,136.4,62.5c23,9.8,43.7,15,68.7,16.8c24.2,1.7,26.9-11.4,47.7-17.2
                    c36.4-10.2,50.6,30.7,12.4,39.4c-47,10.7-90.1,11.7-135.8-5.3c-43.6-16.2-84-40.4-125.5-61.1c-19.3-9.6-41-21.4-63.2-19.4
                    c-25.3,2.3-48.4,14.1-74.3,15.3c-33.4,1.5-101.6-4.4-107.8-47.3c-8-55.4,62.8-44,94.4-37.5c27.8,5.7,54.3,16.5,81.9,22
                    c27.9,5.7,49.2-4.2,74.5-15.3c49.2-21.6,108.5-37,152.6-67.4c-73-44.3-144.1-91.2-222.1-126.4c-68.4-30.9-157.2-64-226-12.7
                    c-11.1,8.3-20.3,19.6-26,32.2c-6.4,14-2.7,29.4-7.8,42.9C27.4,133.4,16,141,4.9,129.5c-10.1-10.4-2-33.4,2.1-44.6
                    C28.2,27.4,86.9,0.5,145,0c78.1-0.7,153.1,31.3,222.4,64.4c35.5,16.9,70.1,35.7,103.2,56.8c30.6,19.5,61.9,54.4,100.8,39.3
                    c68.6-26.4,131.4-75.9,210-57.7c57.6,13.4,99.3,84.7,40.5,125.7c-32.5,22.7-74.6,30.1-113.6,30c-42.6-0.1-77.9-19.1-117-32.7
                    c-41.5-14.4-84.9,10.2-124.1,24.2C448.9,256.6,351.9,281.1,351.6,300.8z M604.7,191.1c24.8,28.8,71.1,34.9,107.4,34.4
                    c31.8-0.4,94.3-7.9,110.4-41.2c23.9-49.5-49.1-56-77.9-51.8C695.1,139.9,649,169.4,604.7,191.1z M131.1,283.8
                    c25.5,27.4,91,30.7,122.6,7.1C212.6,263.8,153.1,259.8,131.1,283.8z"></path>
        </symbol>

        <symbol id="youtube" version="1.1" viewBox="0 0 512 512">
            <g>
                <path
                    d="M260.4,449c-57.1-1.8-111.4-3.2-165.7-5.3c-11.7-0.5-23.6-2.3-35-5c-21.4-5-36.2-17.9-43.8-39c-6.1-17-8.3-34.5-9.9-52.3   C2.5,305.6,2.5,263.8,4.2,222c1-23.6,1.6-47.4,7.9-70.3c3.8-13.7,8.4-27.1,19.5-37c11.7-10.5,25.4-16.8,41-17.5   c42.8-2.1,85.5-4.7,128.3-5.1c57.6-0.6,115.3,0.2,172.9,1.3c24.9,0.5,50,1.8,74.7,5c22.6,3,39.5,15.6,48.5,37.6   c6.9,16.9,9.5,34.6,11,52.6c3.9,45.1,4,90.2,1.8,135.3c-1.1,22.9-2.2,45.9-8.7,68.2c-7.4,25.6-23.1,42.5-49.3,48.3   c-10.2,2.2-20.8,3-31.2,3.4C366.2,445.7,311.9,447.4,260.4,449z M205.1,335.3c45.6-23.6,90.7-47,136.7-70.9   c-45.9-24-91-47.5-136.7-71.4C205.1,240.7,205.1,287.6,205.1,335.3z" />
            </g>
        </symbol>

    </defs>
</svg>