<?xml version="1.0" standalone="no"?>
<!DOCTYPE svg PUBLIC "-//W3C//DTD SVG 20010904//EN" "http://www.w3.org/TR/2001/REC-SVG-20010904/DTD/svg10.dtd">
<svg version="1.0" xmlns="http://www.w3.org/2000/svg"
    width="512.000000pt" height="512.000000pt" viewBox="0 0 512.000000 512.000000"
    preserveAspectRatio="xMidYMid meet">

    <g transform="translate(0.000000,512.000000) scale(0.100000,-0.100000)"
        fill="#ffffff" stroke="none">
        <path
            d="M2073 5106 c-236 -57 -403 -280 -403 -536 0 -147 52 -285 155 -414
l55 -68 -113 -57 c-293 -147 -544 -373 -720 -647 l-45 -71 -113 -6 c-163 -9
-263 -41 -389 -123 -153 -100 -270 -264 -322 -454 -19 -70 -16 -283 5 -355 44
-149 109 -257 216 -358 87 -82 170 -131 289 -170 72 -24 94 -35 97 -51 3 -12
57 -338 121 -726 64 -388 125 -732 135 -765 41 -123 139 -225 267 -277 l57
-23 1195 0 1195 0 57 23 c128 52 226 154 267 277 10 33 71 377 135 765 64 388
118 714 121 726 3 16 25 27 97 51 253 83 428 267 505 528 21 72 24 285 5 355
-76 276 -278 482 -547 557 -27 7 -101 17 -164 20 l-113 6 -45 71 c-173 270
-418 492 -709 642 -60 31 -110 59 -112 63 -1 4 13 25 31 47 153 178 205 392
147 604 -41 152 -172 292 -327 350 -161 60 -362 22 -487 -92 l-50 -45 -58 47
c-132 107 -282 143 -435 106z m170 -297 c64 -17 115 -73 163 -176 50 -107 80
-133 155 -133 73 0 106 29 164 145 58 115 105 159 181 171 138 20 246 -87 246
-247 0 -62 -5 -81 -36 -143 -19 -39 -61 -100 -93 -135 -52 -58 -289 -272 -415
-375 l-48 -38 -169 146 c-348 299 -430 409 -419 563 12 164 130 261 271 222z
m60 -1106 c95 -80 188 -153 206 -161 44 -18 105 -9 146 22 16 13 99 82 184
155 85 72 157 131 162 131 4 0 41 -12 81 -26 307 -111 614 -374 777 -669 92
-164 126 -183 273 -153 78 16 186 0 272 -40 173 -81 279 -281 248 -468 -31
-190 -175 -339 -361 -374 -74 -14 -3388 -14 -3462 0 -186 35 -330 184 -361
374 -31 187 75 387 248 468 86 40 194 56 272 40 147 -30 181 -11 273 153 162
292 461 551 769 666 41 15 81 28 88 29 7 0 91 -66 185 -147z m-703 -1915 c0
-13 27 -345 60 -738 33 -393 60 -723 60 -732 0 -16 -13 -18 -133 -18 -72 0
-148 4 -166 10 -48 13 -87 54 -100 103 -10 37 -231 1366 -231 1388 0 5 115 9
255 9 l255 0 0 -22z m810 -733 l0 -755 -195 0 -195 0 0 23 c0 12 -27 344 -60
737 -33 393 -60 723 -60 733 0 16 19 17 255 17 l255 0 0 -755z m810 738 c0
-10 -27 -340 -60 -733 -33 -393 -60 -725 -60 -737 l0 -23 -195 0 -195 0 0 755
0 755 255 0 c236 0 255 -1 255 -17z m810 8 c0 -22 -221 -1351 -231 -1388 -13
-49 -52 -90 -100 -103 -18 -6 -94 -10 -166 -10 -120 0 -133 2 -133 18 0 9 27
339 60 732 33 393 60 725 60 738 l0 22 255 0 c140 0 255 -4 255 -9z" />
    </g>
</svg>