<?xml version="1.0" standalone="no"?>
<!DOCTYPE svg PUBLIC "-//W3C//DTD SVG 20010904//EN" "http://www.w3.org/TR/2001/REC-SVG-20010904/DTD/svg10.dtd">
<svg version="1.0" xmlns="http://www.w3.org/2000/svg"
    width="512.000000pt" height="512.000000pt" viewBox="0 0 512.000000 512.000000"
    preserveAspectRatio="xMidYMid meet">

    <g transform="translate(0.000000,512.000000) scale(0.100000,-0.100000)"
        fill="#ffffff" stroke="none">
        <path
            d="M2410 4715 c0 -9 -17 -50 -39 -93 -82 -164 -81 -299 4 -459 19 -36
35 -79 35 -95 0 -16 -17 -63 -39 -106 -82 -164 -81 -299 4 -459 19 -36 35 -72
35 -80 0 -10 31 -13 150 -13 142 0 150 1 150 20 0 48 -25 131 -61 199 -23 43
-39 88 -39 108 0 19 17 65 41 111 77 148 77 292 -1 440 -49 92 -51 127 -9 200
40 71 56 116 64 186 l7 56 -151 0 c-129 0 -151 -2 -151 -15z" />
        <path
            d="M1577 4396 c-61 -136 -60 -251 4 -371 37 -69 36 -91 -2 -163 -63
-121 -62 -241 3 -380 l33 -71 149 -1 149 0 -6 52 c-4 28 -22 85 -42 126 -19
41 -35 81 -35 89 0 8 17 49 38 91 35 73 37 80 37 177 0 97 -2 104 -37 177 -21
42 -38 83 -38 91 0 8 16 48 35 89 20 41 38 98 42 126 l6 52 -149 0 -149 -1
-38 -83z" />
        <path
            d="M3255 4398 c-39 -80 -40 -86 -40 -183 0 -95 2 -104 38 -179 20 -43
37 -85 37 -93 0 -8 -17 -49 -37 -91 -36 -73 -38 -80 -38 -177 0 -97 1 -103 40
-183 l40 -81 148 -1 c135 0 147 1 147 18 0 36 -31 135 -55 176 -32 55 -31 83
5 153 63 120 63 250 1 373 -37 73 -38 99 -7 153 24 41 56 143 56 179 0 17 -12
18 -147 18 l-148 -1 -40 -81z" />
        <path
            d="M2400 3049 c-217 -12 -396 -46 -590 -114 -209 -73 -339 -140 -634
-328 -347 -219 -443 -259 -684 -282 -196 -19 -258 -42 -350 -129 -184 -175
-185 -466 -1 -641 116 -111 266 -147 454 -110 l30 6 135 -528 135 -528 1665 0
1665 0 135 528 135 528 30 -6 c188 -37 338 -1 454 110 184 175 183 466 -1 641
-92 87 -154 110 -350 129 -241 23 -337 63 -684 282 -296 188 -424 254 -637
329 -265 93 -567 131 -907 113z m460 -315 c184 -25 334 -66 492 -135 114 -50
210 -105 441 -251 379 -240 512 -293 800 -322 153 -15 178 -25 209 -87 34 -66
13 -144 -52 -187 -29 -20 -45 -23 -96 -20 -57 3 -68 9 -145 64 -167 120 -217
139 -369 138 -126 -1 -186 -19 -290 -91 -152 -104 -170 -113 -227 -113 -66 0
-107 17 -181 73 -136 105 -247 143 -387 134 -125 -9 -184 -35 -368 -167 -46
-33 -54 -35 -127 -35 -73 0 -81 2 -127 35 -184 132 -243 158 -368 167 -140 9
-251 -29 -387 -134 -74 -56 -115 -73 -181 -73 -57 0 -75 9 -227 113 -104 72
-164 90 -290 91 -152 1 -202 -18 -369 -138 -77 -55 -88 -61 -145 -64 -51 -3
-67 0 -96 20 -40 27 -70 79 -70 123 0 17 8 45 18 64 31 62 56 72 209 87 288
29 421 82 800 322 358 227 492 290 738 351 232 57 535 70 795 35z m-1819
-1106 c19 -6 70 -37 114 -69 139 -100 219 -129 353 -129 125 0 216 34 342 128
41 31 90 62 110 69 80 28 155 9 249 -65 119 -94 220 -132 351 -132 131 0 232
38 351 132 94 74 169 93 249 65 20 -7 69 -38 110 -69 126 -94 217 -128 342
-128 134 0 215 29 353 129 95 69 140 86 208 78 27 -4 51 -8 53 -10 3 -3 -213
-860 -232 -919 -5 -17 -82 -18 -1434 -18 -1352 0 -1429 1 -1434 18 -6 18 -236
914 -236 918 0 2 10 5 23 7 44 9 95 7 128 -5z" />
        <path
            d="M2268 2584 c-99 -52 -183 -125 -194 -168 -22 -88 119 -182 195 -130
29 20 65 100 79 174 16 82 23 170 15 170 -5 -1 -47 -21 -95 -46z" />
        <path
            d="M2756 2573 c14 -145 51 -256 95 -287 76 -52 217 42 195 130 -11 44
-96 117 -195 168 -49 25 -92 46 -95 46 -3 0 -4 -26 0 -57z" />
        <path
            d="M2516 2498 c-71 -128 -95 -252 -58 -297 9 -12 36 -26 60 -32 54 -12
121 3 145 32 23 29 22 95 -4 172 -23 70 -85 187 -99 187 -5 0 -25 -28 -44 -62z" />
    </g>
</svg>