<?xml version="1.0" standalone="no"?>
<!DOCTYPE svg PUBLIC "-//W3C//DTD SVG 20010904//EN"
 "http://www.w3.org/TR/2001/REC-SVG-20010904/DTD/svg10.dtd">
<svg version="1.0" xmlns="http://www.w3.org/2000/svg"
 width="348.000000pt" height="348.000000pt" viewBox="0 0 348.000000 348.000000"
 preserveAspectRatio="xMidYMid meet">

<g transform="translate(0.000000,348.000000) scale(0.100000,-0.100000)"
fill="#ffffff" stroke="none">
<path d="M1690 3467 c-50 -25 -60 -66 -60 -244 0 -90 -3 -163 -6 -163 -3 0
-81 43 -173 95 -92 52 -189 99 -214 105 -89 20 -195 -16 -256 -85 -67 -77 -80
-162 -46 -296 6 -25 2 -29 -74 -67 -104 -52 -158 -90 -241 -168 -117 -111
-208 -260 -256 -421 -36 -119 -46 -341 -19 -435 14 -50 14 -62 3 -68 -109 -63
-149 -130 -129 -219 8 -38 480 -870 570 -1006 128 -193 359 -365 586 -438 137
-44 191 -52 360 -51 199 2 301 26 480 113 142 70 258 159 360 278 87 102 673
1043 686 1104 11 46 5 79 -23 130 -20 36 -89 89 -116 89 -8 0 -12 6 -9 14 23
59 31 117 31 226 0 255 -86 468 -263 653 -80 84 -218 183 -295 212 -43 17 -47
21 -42 44 4 14 9 64 12 111 7 98 -5 137 -62 199 -62 69 -160 101 -249 81 -29
-6 -121 -51 -217 -106 -91 -52 -169 -94 -172 -94 -3 0 -6 73 -6 163 0 134 -3
168 -18 197 -18 38 -53 60 -92 60 -14 0 -36 -6 -50 -13z m-292 -528 c262 -149
304 -169 342 -169 38 0 64 13 334 164 297 167 300 166 236 -111 -23 -103 -44
-189 -44 -190 -1 -1 -33 14 -71 33 -86 42 -126 50 -176 35 -59 -18 -97 -57
-189 -196 -45 -69 -86 -125 -90 -125 -4 0 -44 55 -89 123 -94 143 -130 181
-188 197 -52 16 -91 8 -178 -34 -38 -19 -70 -34 -71 -33 -4 7 -84 365 -84 378
0 22 20 39 47 39 13 0 112 -50 221 -111z m-384 -378 c21 -81 45 -114 99 -140
63 -30 102 -27 196 19 46 23 88 39 93 38 6 -2 56 -71 111 -153 114 -167 146
-195 227 -195 81 0 113 28 227 195 55 82 105 151 111 153 5 1 47 -15 93 -38
89 -43 129 -49 185 -25 57 24 90 67 110 145 10 39 23 70 29 70 30 0 149 -84
220 -155 93 -93 135 -161 178 -282 25 -73 31 -108 35 -204 4 -104 2 -124 -23
-205 -15 -49 -30 -92 -34 -97 -9 -9 -219 -67 -367 -101 -282 -65 -497 -89
-769 -89 -321 1 -549 34 -938 136 l-198 52 -27 85 c-37 116 -38 277 -3 390 46
150 134 283 242 368 74 57 172 114 180 104 3 -4 13 -36 23 -71z m-190 -1156
c322 -81 539 -113 826 -122 381 -11 758 43 1209 173 84 25 155 43 157 41 8 -8
-540 -883 -593 -949 -126 -155 -314 -270 -514 -314 -109 -24 -282 -22 -393 5
-205 49 -399 177 -527 346 -33 45 -199 319 -199 330 0 3 98 5 219 5 206 0 220
-1 245 -21 37 -29 45 -49 55 -130 18 -139 97 -249 221 -308 48 -23 68 -26 155
-26 89 0 107 3 163 29 120 55 203 174 218 314 14 122 43 142 206 142 139 0
176 14 197 75 12 35 11 45 -2 78 -25 59 -63 70 -222 65 -117 -4 -136 -7 -192
-32 -113 -51 -186 -158 -199 -289 -8 -83 -33 -123 -94 -155 -54 -28 -111 -25
-164 8 -47 28 -72 79 -79 157 -12 146 -110 261 -254 298 -44 12 -121 15 -330
15 l-272 0 -39 68 c-22 37 -70 118 -106 180 -36 63 -66 115 -66 117 0 2 44
-10 98 -26 53 -16 178 -50 276 -74z"/>
<path d="M1193 2213 c-39 -7 -73 -59 -73 -109 0 -56 12 -79 50 -99 49 -25 88
-19 126 19 39 39 45 86 18 137 -13 27 -69 62 -91 58 -4 -1 -18 -4 -30 -6z"/>
<path d="M2183 2205 c-38 -16 -63 -60 -63 -111 0 -48 53 -104 99 -104 39 0 87
24 101 49 15 30 12 104 -6 130 -15 21 -70 52 -91 51 -4 -1 -22 -7 -40 -15z"/>
<path d="M1682 1900 c-36 -22 -52 -54 -52 -107 0 -48 54 -103 100 -103 40 0
85 26 99 57 48 105 -54 211 -147 153z"/>
</g>
</svg>
